<svg width="53" height="53" viewBox="0 0 53 53" fill="none" xmlns="http://www.w3.org/2000/svg">
<path d="M6.56536 0.0642242C3.61977 0.561954 1.18239 2.77064 0.238552 5.7674L0 6.5451V26.558V46.571L0.280039 47.4005C1.18239 50.024 2.97671 51.8179 5.60078 52.72L6.43053 53H26.4481H46.4658L47.2436 52.7615C48.6853 52.3053 49.5773 51.766 50.6663 50.6669C51.7658 49.5781 52.3051 48.6863 52.7614 47.245L53 46.4673V26.5062V6.5451L52.7614 5.7674C51.9006 3.04024 50.0648 1.19449 47.2955 0.261242L46.5695 0.0123787L26.8112 0.00200653C15.9415 -0.00836182 6.83503 0.022747 6.56536 0.0642242ZM40.4708 6.45177C42.0266 6.77322 43.3231 7.47834 44.4329 8.59824C45.4493 9.62481 46.0924 10.7447 46.4969 12.1342C46.6628 12.7253 46.6732 13.7726 46.6732 26.5062C46.6732 39.2398 46.6628 40.2871 46.4969 40.8782C45.6568 43.8023 43.375 45.9592 40.4812 46.5606C39.7759 46.7058 38.1476 46.7265 26.5 46.7265C12.1247 46.7265 12.5395 46.7473 11.1082 46.1355C9.25166 45.3578 7.64403 43.7505 6.86614 41.9047C6.25421 40.453 6.27495 40.8885 6.27495 26.5062C6.27495 12.1653 6.25421 12.5801 6.85577 11.118C7.77886 8.83673 10.0088 6.98061 12.4566 6.46214C13.5663 6.21328 39.3092 6.21328 40.4708 6.45177Z" fill="white"/>
<path d="M12.9646 9.54189C12.0934 9.75965 11.44 10.1329 10.7762 10.7966C10.102 11.4706 9.68713 12.2068 9.50044 13.109C9.33449 13.897 9.33449 39.1361 9.50044 39.9035C9.8842 41.687 11.3155 43.118 13.0995 43.5017C13.867 43.6676 39.112 43.6676 39.9002 43.5017C41.6635 43.1284 43.1259 41.6559 43.4993 39.9035C43.6652 39.1154 43.6652 13.8763 43.4993 13.109C43.1155 11.3254 41.6738 9.88408 39.9002 9.51078C39.0705 9.3345 13.6699 9.36561 12.9646 9.54189ZM38.7801 12.8601C39.8691 13.3889 40.45 14.3533 40.45 15.6184C40.45 16.4998 40.2321 17.0908 39.6824 17.7233C38.8319 18.6773 37.2243 18.978 36.0212 18.387C34.3617 17.5678 33.7912 15.5043 34.7973 13.9281C35.6271 12.6216 37.3488 12.1653 38.7801 12.8601ZM28.9891 15.9087C31.0427 16.4479 32.7748 17.4226 34.1854 18.8225C35.5856 20.2224 36.5294 21.9022 37.1102 24.0176C37.411 25.1478 37.411 27.8646 37.1102 28.9949C36.5294 31.1102 35.5856 32.7901 34.1854 34.1899C32.7852 35.5898 31.1049 36.5334 28.9891 37.1141C27.8482 37.4252 25.1411 37.4148 23.9795 37.1037C19.8411 35.9735 17.0304 33.153 15.8999 28.9949C15.568 27.8024 15.5783 25.2412 15.9102 23.9761C17.0408 19.6209 20.5568 16.4064 24.8922 15.7221C25.8568 15.5769 28.0867 15.6806 28.9891 15.9087Z" fill="white"/>
<path d="M24.8923 18.9054C22.4446 19.4239 20.225 21.2696 19.3019 23.5612C17.4765 28.0512 20.2043 33.1322 24.9649 34.1173C27.5164 34.6461 30.1405 33.8477 31.9867 31.9708C33.418 30.5191 34.1129 28.9741 34.2477 26.9209C34.5278 22.5139 30.8769 18.6876 26.4274 18.7395C25.9814 18.7395 25.2968 18.8121 24.8923 18.9054Z" fill="white"/>
</svg>
