<svg width="53" height="53" viewBox="0 0 53 53" fill="none" xmlns="http://www.w3.org/2000/svg">
<path d="M5.91407 0.0745735C3.02237 0.561935 0.534894 3.10244 0.0892202 6.03698C0.0166687 6.52434 -0.0144248 13.1608 0.00630421 26.9728L0.0360463 46.3143C0.0369409 46.8961 0.135496 47.4735 0.327604 48.0227V48.0227C1.1464 50.3351 2.70107 51.8905 5.01236 52.7097V52.7097C5.56119 52.9018 6.13853 53 6.72004 53H26.5187H46.3174C46.8989 53 47.4762 52.9018 48.025 52.7097V52.7097C50.4192 51.8594 52.0672 50.138 52.8134 47.7116C52.9896 47.1205 53 46.1769 53 26.4543V6.69807C53 6.11634 52.9019 5.53877 52.7098 4.98967V4.98967C51.891 2.67729 50.3363 1.12188 48.025 0.3027V0.3027C47.4762 0.110512 46.8989 0.0122046 46.3174 0.0119086L26.8296 0.00198746C15.3354 -0.00838194 6.22501 0.0227265 5.91407 0.0745735ZM34.6548 13.026C35.598 13.3267 36.168 13.617 36.9557 14.2081C37.3911 14.5399 37.6813 14.6851 37.9196 14.6851C38.386 14.6851 39.6712 14.2392 40.7906 13.6896C41.8167 13.1815 42.0965 13.1504 42.1484 13.5237C42.2002 13.8762 41.568 15.1413 40.9357 15.9709C40.3242 16.7589 40.2931 16.7382 41.599 16.2716C42.4904 15.9398 43.0294 15.9086 43.0812 16.1679C43.1434 16.4582 42.2106 17.6611 40.9668 18.8847L40.4628 19.3844C40.0395 19.8041 39.7839 20.3638 39.7438 20.9585V20.9585C39.5469 23.8516 39.1427 25.8322 38.3342 27.8646C35.9504 33.8892 31.2345 38.1406 25.2231 39.6649C23.3783 40.1316 22.5076 40.2353 20.2482 40.2353C17.9576 40.2456 17.1492 40.1523 15.4183 39.7168C13.9984 39.3642 12.7546 38.908 11.4073 38.2547C10.1946 37.6637 9.86294 37.3629 9.98732 36.9793C10.091 36.6578 10.4537 36.5645 11.6353 36.5645C13.4594 36.5645 15.3458 36.129 17.0352 35.3098C18.196 34.7602 18.735 34.4077 18.538 34.3558C18.4551 34.3247 18.0613 34.2003 17.6571 34.0862C15.9158 33.547 14.3508 32.199 13.5216 30.5399C12.8168 29.14 12.879 28.9637 14.0398 29.0571V29.0571C14.2192 29.0727 14.2978 28.8361 14.1447 28.7413L14.102 28.7149C12.1742 27.5327 10.8683 25.407 10.6921 23.1983C10.6092 22.0888 10.7128 22.0266 11.7389 22.4517C12.1639 22.628 12.5681 22.7732 12.6303 22.7732C12.6925 22.7732 12.5888 22.5762 12.3919 22.3273C11.2622 20.9378 10.7543 19.5172 10.7543 17.7337C10.7439 16.6138 10.9719 15.5872 11.4176 14.6851C11.8737 13.7622 11.998 13.7622 12.8583 14.7265C15.3665 17.5574 18.6728 19.5483 22.3729 20.4919C23.5337 20.7823 25.2024 21.0104 25.3268 20.8963C25.389 20.8341 25.4408 20.3364 25.4408 19.7868C25.4615 18.5528 25.6688 17.6922 26.2181 16.5723C27.1302 14.7162 28.9025 13.3474 31.0273 12.86C31.929 12.6527 33.7324 12.7356 34.6548 13.026Z" fill="white"/>
</svg>
