<svg width="53" height="53" viewBox="0 0 53 53" fill="none" xmlns="http://www.w3.org/2000/svg">
<path d="M8.17774 0.147781C6.15919 0.520493 4.56505 1.34873 3.03302 2.81886C1.884 3.92664 1.02482 5.26218 0.527944 6.6909C-0.0103373 8.29562 1.41997e-05 7.77796 1.41997e-05 26.4962C1.41997e-05 45.2145 -0.0103373 44.6969 0.527944 46.3016C1.49064 49.1072 3.8922 51.5091 6.69747 52.472C8.30196 53.0103 7.78439 53 26.5 53C45.2156 53 44.698 53.0103 46.3025 52.472C49.1078 51.5091 51.5094 49.1072 52.4721 46.3016C53.0103 44.6969 53 45.2145 53 26.4962C53 7.77796 53.0103 8.29562 52.4721 6.6909C51.5094 3.88522 49.1078 1.48332 46.3025 0.520493C44.698 -0.0178642 45.2363 -0.00751114 26.4068 0.00284195C12.2149 0.0131912 8.80919 0.0338974 8.17774 0.147781ZM16.9662 9.04103C17.2354 9.24809 18.1773 10.7907 19.4092 13.0373C20.082 14.2486 20.8377 15.5738 21.0965 15.9672C22.0592 17.4684 21.8314 18.0171 19.4092 19.9738C17.6908 21.3715 17.1836 21.9409 17.1836 22.4793C17.1836 22.9244 17.4631 23.5353 18.3326 24.995C21.0137 29.4883 23.643 32.1076 28.208 34.7994C30.0299 35.8657 30.4853 35.99 31.1271 35.5965C31.3135 35.4723 32.0484 34.7165 32.7523 33.9194C34.2533 32.2008 34.9676 31.4967 35.3506 31.4036C35.8371 31.2793 36.3029 31.4346 37.2863 32.0558C37.8143 32.3975 39.3256 33.2671 40.6506 33.9918C43.373 35.5034 43.9941 35.9382 44.1183 36.3834C44.1598 36.549 44.1494 37.0874 44.0873 37.574C43.7664 40.214 42.8451 41.591 40.5988 42.7298C38.7045 43.703 37.2242 44.1067 35.6094 44.1171C33.9738 44.1171 33.0318 43.8893 30.0195 42.7815C25.558 41.1458 22.2559 39.0338 18.5397 35.4516C14.5232 31.5796 11.9664 27.749 10.2066 22.9762C9.09903 19.9635 8.88165 19.0214 8.88165 17.3338C8.892 14.3418 10.8381 10.5008 12.7842 9.61045C14.3162 8.9168 16.459 8.62691 16.9662 9.04103Z" fill="white"/>
</svg>
