<svg width="53" height="53" viewBox="0 0 53 53" fill="none" xmlns="http://www.w3.org/2000/svg">
<g clip-path="url(#clip0_72_32)">
<path d="M3.75759 0.144939C1.97712 0.579704 0.486499 2.11174 0.113843 3.91291C-0.0517822 4.68928 -0.0517822 48.3108 0.113843 49.0871C0.496851 50.9297 2.07029 52.5031 3.91287 52.8862C4.68923 53.0518 48.3107 53.0518 49.0871 52.8862C50.9297 52.5031 52.5031 50.9297 52.8861 49.0871C53.0517 48.3108 53.0517 4.68928 52.8861 3.91291C52.5031 2.07033 50.9297 0.496891 49.0871 0.113884C48.2486 -0.0620918 4.4822 -0.0310364 3.75759 0.144939ZM30.8476 14.4922C33.9117 14.6371 36.8412 14.8752 37.8349 15.0719C39.5326 15.3928 41.282 16.5625 41.9652 17.8047C42.5863 18.9434 43.0004 22.4319 43.0004 26.5C43.0004 30.5682 42.5863 34.0567 41.9652 35.1953C41.3545 36.3237 39.6465 37.5244 38.1558 37.8764C37.5658 38.0213 35.4541 38.2387 32.8144 38.425C30.3715 38.5906 22.4836 38.5906 20.1855 38.425C15.4135 38.0731 14.7302 37.9592 13.4881 37.3588C12.3701 36.8309 11.397 35.9303 10.983 35.0504C10.6621 34.3879 10.3929 32.9697 10.1238 30.5371C9.95818 28.9947 9.95818 24.0053 10.1238 22.4629C10.5275 18.7674 10.8277 17.7737 11.8215 16.8006C13.0429 15.6102 14.3679 15.0926 16.8006 14.8649C21.3449 14.4301 26.5828 14.2955 30.8476 14.4922Z" fill="white"/>
<path d="M22.5664 26.5V32.8248L22.9598 32.5867C25.2785 31.1996 32.8145 26.5414 32.8145 26.5C32.8145 26.4586 25.2164 21.7694 22.9598 20.4133L22.5664 20.1752V26.5Z" fill="white"/>
</g>
<defs>
<clipPath id="clip0_72_32">
<rect width="53" height="53" fill="white"/>
</clipPath>
</defs>
</svg>
